<svg width="83" height="59" viewBox="0 0 83 59" fill="none" xmlns="http://www.w3.org/2000/svg">
<path d="M29.1087 38.8701L34.0087 43.7701L20.5687 57.2101C23.3987 57.6701 26.3387 58.0401 29.3787 58.3101L38.9587 48.7301L48.8587 58.6301C51.9787 58.4601 55.0187 58.1901 57.9587 57.8201L43.9187 43.7701L48.5687 39.1201C53.4187 42.9401 60.4487 42.6701 64.9187 38.2001L80.8387 22.2801C83.1887 19.9301 83.3587 16.1801 81.2187 13.7401C80.1087 12.4701 78.5787 11.7301 76.9087 11.6401C76.8287 10.1701 76.2287 8.73006 75.1087 7.61006C73.9887 6.49006 72.5487 5.89006 71.0787 5.81006C70.9887 4.14006 70.2487 2.61006 68.9787 1.50006C66.5387 -0.639938 62.7887 -0.469938 60.4387 1.88006L44.5287 17.8101C40.0587 22.2801 39.7887 29.3201 43.6087 34.1601L38.9587 38.8101L34.0587 33.9101C37.3687 28.3701 36.6887 21.1101 31.9287 16.3501C24.6187 9.03006 10.2387 0.190063 2.80868 7.62006C-4.62132 15.0501 4.22868 29.4301 11.5487 36.7501C16.3087 41.5101 23.5787 42.1801 29.1087 38.8701ZM47.4387 20.7201L63.3587 4.80006C64.1687 3.99006 65.4687 3.90006 66.2687 4.60006C66.7087 4.98006 66.9587 5.51006 66.9787 6.09006C66.9987 6.67006 66.7787 7.21006 66.3787 7.61006L57.6387 16.3501C56.8387 17.1501 56.8387 18.4601 57.6387 19.2601C58.4387 20.0601 59.7487 20.0601 60.5487 19.2601L69.2887 10.5201C70.0887 9.72006 71.3987 9.72006 72.1987 10.5201C72.9987 11.3201 72.9987 12.6301 72.1987 13.4301L63.4587 22.1701C62.6587 22.9701 62.6587 24.2801 63.4587 25.0801C64.2587 25.8801 65.5687 25.8801 66.3687 25.0801L75.1087 16.3401C75.5187 15.9301 76.0587 15.7201 76.6287 15.7401C77.1587 15.7601 77.6487 15.9701 78.0187 16.3401C78.0487 16.3701 78.0787 16.4101 78.1187 16.4401C78.8187 17.2401 78.7287 18.5401 77.9187 19.3501L62.0087 35.2901C58.7987 38.5001 53.5687 38.5001 50.3587 35.2901L47.4487 32.3801C44.2287 29.1601 44.2287 23.9401 47.4387 20.7201ZM29.0187 33.8301C24.9987 37.8501 18.4687 37.8501 14.4587 33.8301C8.86868 28.2401 0.568676 15.6701 5.71868 10.5301C10.8687 5.39006 23.4387 13.6801 29.0187 19.2701C33.0387 23.2801 33.0387 29.8201 29.0187 33.8301Z" fill="#FF0014"/>
</svg>
